<svg width="86" height="35" viewBox="0 0 86 35" fill="none" xmlns="http://www.w3.org/2000/svg">
<g clip-path="url(#clip0_118_37)">
<path d="M45.3831 10.4032C45.3831 11.4242 44.6029 12.2467 43.6344 12.2467C42.666 12.2467 41.8858 11.4242 41.8858 10.4032C41.8858 9.38216 42.6391 8.55967 43.6344 8.55967C44.6298 8.58803 45.3831 9.41052 45.3831 10.4032ZM38.1733 14.1186C38.1733 14.2887 38.1733 14.5723 38.1733 14.5723C38.1733 14.5723 37.3394 13.4379 35.5639 13.4379C32.6316 13.4379 30.3449 15.7919 30.3449 19.0535C30.3449 22.2867 32.6047 24.6691 35.5639 24.6691C37.3663 24.6691 38.1733 23.5063 38.1733 23.5063V23.9884C38.1733 24.2153 38.3348 24.3855 38.55 24.3855H40.729V13.7215C40.729 13.7215 38.7383 13.7215 38.55 13.7215C38.3348 13.7215 38.1733 13.92 38.1733 14.1186ZM38.1733 20.9537C37.7698 21.5777 36.9628 22.1166 35.9943 22.1166C34.2726 22.1166 32.9544 20.9821 32.9544 19.0535C32.9544 17.1249 34.2726 15.9904 35.9943 15.9904C36.9359 15.9904 37.7967 16.5577 38.1733 17.1533V20.9537ZM42.3431 13.7215H44.9257V24.3855H42.3431V13.7215ZM80.9205 13.4379C79.1449 13.4379 78.311 14.5723 78.311 14.5723V8.58803H75.7284V24.3855C75.7284 24.3855 77.7191 24.3855 77.9074 24.3855C78.1227 24.3855 78.2841 24.187 78.2841 23.9884V23.5063C78.2841 23.5063 79.118 24.6691 80.8936 24.6691C83.8259 24.6691 86.1125 22.2867 86.1125 19.0535C86.1125 15.8203 83.8259 13.4379 80.9205 13.4379ZM80.49 22.0882C79.4947 22.0882 78.7145 21.5493 78.311 20.9254V17.1249C78.7145 16.5577 79.5754 15.9621 80.49 15.9621C82.2117 15.9621 83.5299 17.0965 83.5299 19.0251C83.5299 20.9537 82.2117 22.0882 80.49 22.0882ZM74.3833 18.0608V24.4139H71.8007V18.3728C71.8007 16.6144 71.2627 15.9053 69.81 15.9053C69.0298 15.9053 68.2228 16.3308 67.7116 16.9547V24.3855H65.129V13.7215H67.1736C67.3888 13.7215 67.5502 13.92 67.5502 14.1186V14.5723C68.3035 13.7499 69.2988 13.4379 70.2942 13.4379C71.4241 13.4379 72.3656 13.7782 73.1189 14.4589C74.0336 15.253 74.3833 16.274 74.3833 18.0608ZM58.8609 13.4379C57.0854 13.4379 56.2514 14.5723 56.2514 14.5723V8.58803H53.6688V24.3855C53.6688 24.3855 55.6596 24.3855 55.8479 24.3855C56.0631 24.3855 56.2245 24.187 56.2245 23.9884V23.5063C56.2245 23.5063 57.0585 24.6691 58.834 24.6691C61.7663 24.6691 64.053 22.2867 64.053 19.0535C64.0799 15.8203 61.7932 13.4379 58.8609 13.4379ZM58.4305 22.0882C57.4351 22.0882 56.6549 21.5493 56.2514 20.9254V17.1249C56.6549 16.5577 57.5158 15.9621 58.4305 15.9621C60.1522 15.9621 61.4704 17.0965 61.4704 19.0251C61.4704 20.9537 60.1522 22.0882 58.4305 22.0882ZM51.436 13.4379C52.2161 13.4379 52.6197 13.5797 52.6197 13.5797V16.1039C52.6197 16.1039 50.4675 15.3381 49.1224 16.9547V24.4139H46.5398V13.7215C46.5398 13.7215 48.5306 13.7215 48.7189 13.7215C48.9341 13.7215 49.0955 13.92 49.0955 14.1186V14.5723C49.5797 13.9768 50.6289 13.4379 51.436 13.4379ZM24.6148 23.4212C24.4803 23.0809 24.3458 22.7122 24.2113 22.4002C23.996 21.8897 23.7808 21.4075 23.5925 20.9537L23.5656 20.9254C21.7094 16.6711 19.7186 12.3601 17.6203 8.10588L17.5396 7.93571C17.3244 7.51029 17.1092 7.0565 16.8939 6.60271C16.6249 6.0922 16.3559 5.55333 15.9255 5.04282C15.0646 3.90835 13.8271 3.28439 12.5089 3.28439C11.1638 3.28439 9.95326 3.90835 9.0655 4.98609C8.66197 5.49661 8.36605 6.03548 8.09703 6.54599C7.88181 6.99978 7.6666 7.45356 7.45138 7.87899L7.37068 8.04916C5.29923 12.3034 3.28159 16.6144 1.42536 20.8686L1.39845 20.9254C1.21014 21.3792 0.994926 21.8613 0.779711 22.3718C0.645202 22.6838 0.510692 23.0241 0.376183 23.3928C0.0264582 24.4422 -0.0811494 25.4349 0.0533601 26.4559C0.349281 28.583 1.69438 30.3698 3.55061 31.1639C4.25006 31.4759 4.97641 31.6177 5.72966 31.6177C5.94487 31.6177 6.21389 31.5894 6.42911 31.561C7.31687 31.4476 8.23154 31.1356 9.1193 30.5967C10.2223 29.9444 11.2715 29.0084 12.4551 27.6471C13.6388 29.0084 14.7149 29.9444 15.791 30.5967C16.6787 31.1356 17.5934 31.4476 18.4812 31.561C18.6964 31.5894 18.9654 31.6177 19.1806 31.6177C19.9339 31.6177 20.6871 31.4759 21.3597 31.1639C23.2428 30.3698 24.561 28.5547 24.8569 26.4559C25.0721 25.4632 24.9645 24.4706 24.6148 23.4212ZM12.482 24.896C11.0293 22.9674 10.0878 21.1523 9.76494 19.6207C9.63043 18.9684 9.60353 18.4012 9.68424 17.8907C9.73804 17.4369 9.89945 17.0398 10.1147 16.6995C10.6258 15.9337 11.4867 15.4516 12.482 15.4516C13.4774 15.4516 14.3652 15.9053 14.8494 16.6995C15.0646 17.0398 15.226 17.4369 15.2798 17.8907C15.3605 18.4012 15.3336 18.9968 15.1991 19.6207C14.8763 21.1239 13.9347 22.939 12.482 24.896ZM23.2159 26.229C23.0276 27.7038 22.086 28.9801 20.7678 29.5473C20.1222 29.8309 19.4227 29.916 18.7233 29.8309C18.0507 29.7459 17.3782 29.519 16.6787 29.0935C15.7103 28.5263 14.7418 27.6471 13.6119 26.3425C15.3874 24.0452 16.4635 21.9464 16.867 20.0745C17.0554 19.1953 17.0823 18.4012 17.0016 17.6638C16.8939 16.9547 16.6518 16.3024 16.2752 15.7352C15.4412 14.4589 14.0423 13.7215 12.482 13.7215C10.9217 13.7215 9.52283 14.4873 8.68887 15.7352C8.31224 16.3024 8.07012 16.9547 7.96252 17.6638C7.85491 18.4012 7.88181 19.2237 8.09703 20.0745C8.50056 21.9464 9.60353 24.0735 11.3522 26.3708C10.2492 27.6754 9.25381 28.5547 8.28534 29.1219C7.58589 29.5473 6.91334 29.7742 6.2408 29.8593C5.51444 29.9444 4.815 29.8309 4.19625 29.5757C2.87806 29.0084 1.93649 27.7322 1.74818 26.2574C1.66747 25.5483 1.72128 24.8393 1.9903 24.0452C2.071 23.7615 2.20551 23.4779 2.34002 23.1376C2.52833 22.6838 2.74355 22.2016 2.95876 21.7195L2.98567 21.6628C4.8419 17.4369 6.83264 13.1259 8.90408 8.92837L8.98479 8.7582C9.20001 8.33277 9.41522 7.87899 9.63043 7.45356C9.84565 6.99978 10.0878 6.57435 10.3837 6.20565C10.9486 5.52497 11.7019 5.15627 12.5358 5.15627C13.3698 5.15627 14.1231 5.52497 14.688 6.20565C14.9839 6.57435 15.226 6.99978 15.4412 7.45356C15.6565 7.87899 15.8717 8.33277 16.0869 8.7582L16.1676 8.92837C18.2121 13.1543 20.2029 17.4652 22.0591 21.6911V21.7195C22.2743 22.1733 22.4626 22.6838 22.6779 23.1376C22.8124 23.4779 22.9469 23.7615 23.0276 24.0452C23.2428 24.7826 23.3235 25.4916 23.2159 26.229Z" fill="#818487" fill-opacity="0.45"/>
</g>
<defs>
<clipPath id="clip0_118_37">
<rect width="86" height="34" fill="white" transform="translate(0 0.45105)"/>
</clipPath>
</defs>
</svg>
