<svg width="86" height="35" viewBox="0 0 86 35" fill="none" xmlns="http://www.w3.org/2000/svg">
<g clip-path="url(#clip0_118_38)">
<path fill-rule="evenodd" clip-rule="evenodd" d="M52.9999 27.451C48.1024 30.701 40.1118 32.451 33.9999 32.451C25.4301 32.451 17.8367 29.1972 11.9999 24.451C11.5414 24.0778 12.4497 24.1604 12.9999 24.451C19.2989 27.7506 26.9547 29.451 34.9999 29.451C40.4258 29.451 46.5117 28.5483 51.9999 26.451C52.829 26.134 53.8107 26.9094 52.9999 27.451Z" fill="#79797A" fill-opacity="0.45"/>
<path fill-rule="evenodd" clip-rule="evenodd" d="M54.9999 25.451C54.3763 24.731 50.5774 25.2826 48.9999 25.451C48.5194 25.5039 48.5671 24.7219 48.9999 24.451C51.7991 22.6774 56.4643 23.8565 56.9999 24.451C57.5356 25.0489 56.6303 28.4726 53.9999 30.451C53.5964 30.7549 52.8202 30.854 52.9999 30.451C53.5906 29.1233 55.6273 26.1744 54.9999 25.451Z" fill="#79797A" fill-opacity="0.45"/>
<path fill-rule="evenodd" clip-rule="evenodd" d="M50.0001 12.451V10.451C50.0001 10.1823 49.7306 9.45105 50.0001 9.45105H59.0001C59.2809 9.45105 59.0001 10.1857 59.0001 10.451V11.451C58.9964 11.7062 59.4194 11.9238 59.0001 12.451L54.0001 18.451C55.6846 18.4136 57.4728 18.6686 59.0001 19.451C59.3445 19.6279 59.9739 20.1959 60.0001 20.451V22.451C60.0001 22.7096 59.3295 22.6075 59.0001 22.451C56.3086 21.1686 52.9761 21.0155 50.0001 22.451C49.6969 22.6007 49.0001 22.7096 49.0001 22.451V20.451C49.0001 20.1619 49.6819 19.8899 50.0001 19.451L55.0001 12.451H50.0001C50.0001 12.7164 49.7194 12.451 50.0001 12.451Z" fill="#79797A" fill-opacity="0.45"/>
<path fill-rule="evenodd" clip-rule="evenodd" d="M18.0001 23.451H15.0001C14.7456 23.434 15.0188 22.6722 15.0001 22.451V10.451C15.0001 10.2027 14.7156 9.45105 15.0001 9.45105H18.0001C18.2584 9.46125 17.9814 10.2265 18.0001 10.451V11.451C18.6477 9.88284 20.3605 9.45105 22.0001 9.45105C23.6659 9.45105 24.2514 9.88284 25.0001 11.451C25.644 9.88284 27.4316 9.45105 29.0001 9.45105C30.1156 9.45105 31.2552 9.51216 32.0001 10.451C32.8424 11.4954 33.0001 13.121 33.0001 14.451V22.451C33.0001 22.6994 32.2846 23.451 32.0001 23.451H29.0001C28.7343 23.434 29.0001 22.6892 29.0001 22.451V16.451C29.0001 15.9272 29.1274 13.9477 29.0001 13.451C28.8017 12.6176 27.7712 12.451 27.0001 12.451C26.3562 12.451 26.2734 12.8251 26.0001 13.451C25.7268 14.077 25.0001 15.7469 25.0001 16.451V22.451C25.0001 22.6994 25.2846 23.451 25.0001 23.451H22.0001C21.7306 23.434 22.0001 22.6892 22.0001 22.451V16.451C22.0001 15.0665 21.8905 12.451 20.0001 12.451C18.0872 12.451 18.0001 15.0155 18.0001 16.451V22.451C18.0001 22.6994 18.2846 23.451 18.0001 23.451Z" fill="#79797A" fill-opacity="0.45"/>
<path fill-rule="evenodd" clip-rule="evenodd" d="M67.0001 9.45105C70.9494 9.45105 73.0001 12.5322 73.0001 16.451C73.0001 20.2372 70.7248 23.451 67.0001 23.451C63.122 23.451 61.0001 20.2916 61.0001 16.451C61.0001 12.5866 63.1482 9.45105 67.0001 9.45105ZM67.0001 12.451C65.0386 12.451 65.0001 14.9373 65.0001 16.451C65.0001 17.9682 64.9113 20.451 67.0001 20.451C69.0627 20.451 69.0001 18.0431 69.0001 16.451C69.0001 15.4033 69.3482 14.4444 69.0001 13.451C68.7006 12.587 67.8461 12.451 67.0001 12.451Z" fill="#79797A" fill-opacity="0.45"/>
<path fill-rule="evenodd" clip-rule="evenodd" d="M78.0001 23.451H76.0001C75.7343 23.434 75.0001 22.6892 75.0001 22.451V10.451C75.0226 10.2231 75.7306 9.45105 76.0001 9.45105H78.0001C78.2322 9.46125 78.9477 10.2571 79.0001 10.451V12.451C79.745 10.7536 80.1621 9.45105 82.0001 9.45105C83.1942 9.45105 84.2514 10.3795 85.0001 11.451C85.6964 12.4444 86.0001 13.2502 86.0001 14.451V22.451C85.9702 22.6688 85.2621 23.451 85.0001 23.451H83.0001C82.7568 23.434 82.0263 22.662 82.0001 22.451V16.451C82.0001 15.0937 82.8381 12.451 81.0001 12.451C80.3525 12.451 79.2958 12.8523 79.0001 13.451C78.6258 14.2096 79.0001 15.6142 79.0001 16.451V22.451C78.9964 22.6994 78.2846 23.451 78.0001 23.451Z" fill="#79797A" fill-opacity="0.45"/>
<path fill-rule="evenodd" clip-rule="evenodd" d="M43.0001 17.451C43.0001 18.3933 42.5242 18.6142 42.0001 19.451C41.5771 20.1314 40.745 20.451 40.0001 20.451C38.9782 20.451 39.0001 20.4954 39.0001 19.451C39.0001 17.3896 41.0723 16.451 43.0001 16.451V17.451ZM45.0001 23.451C44.8242 23.5939 45.1985 23.5463 45.0001 23.451C44.1167 22.7843 43.483 22.0872 43.0001 21.451C41.5402 22.805 40.8905 23.451 39.0001 23.451C36.7578 23.451 35.0001 21.965 35.0001 19.451C35.0001 17.4882 36.3306 16.1042 38.0001 15.451C39.4451 14.8727 41.4578 14.6109 43.0001 14.451C43.0001 13.8762 42.3745 12.9477 42.0001 12.451C41.6782 12.0054 41.5504 12.451 41.0001 12.451C39.9856 12.451 39.221 12.4713 39.0001 13.451C38.9552 13.6688 38.2434 13.4408 38.0001 13.451H36.0001C35.783 13.4068 34.9365 13.7538 35.0001 13.451C35.5916 10.6072 38.4696 9.45105 41.0001 9.45105C42.2953 9.45105 43.9782 9.55979 45.0001 10.451C46.2953 11.5498 46.0001 12.8556 46.0001 14.451V18.451C46.0001 19.5838 46.5135 19.8387 47.0001 20.451C47.1686 20.6688 47.2172 21.2878 47.0001 21.451C46.4573 21.8627 45.5317 23.0224 45.0001 23.451Z" fill="#79797A" fill-opacity="0.45"/>
<path fill-rule="evenodd" clip-rule="evenodd" d="M8.00011 17.451C8.00011 18.3933 7.52418 18.6142 7.00011 19.451C6.5771 20.1314 6.74879 20.451 6.00011 20.451C4.97816 20.451 4.00011 20.4954 4.00011 19.451C4.00011 17.3896 6.07601 16.451 8.00011 16.451V17.451ZM11.0001 23.451C10.8242 23.5939 10.1985 23.5463 10.0001 23.451C9.11667 22.7843 8.48675 22.0872 8.00011 21.451C6.54019 22.8049 5.89427 23.451 4.00011 23.451C1.76156 23.451 0.000109204 21.9649 0.000109204 19.451C0.000109204 17.4882 1.3343 16.1042 3.00011 15.451C4.44506 14.8727 6.45783 14.6109 8.00011 14.451C8.00011 13.8762 8.37071 12.9477 8.00011 12.451C7.67443 12.0054 6.54665 12.451 6.00011 12.451C4.98565 12.451 4.22097 12.4713 4.00011 13.451C3.95519 13.6688 3.23968 13.4408 3.00011 13.451H1.00011C0.782992 13.4068 -0.0597851 13.7538 0.000109204 13.451C0.595308 10.6072 3.46958 9.45105 6.00011 9.45105C7.29532 9.45105 8.97816 9.55979 10.0001 10.451C11.2953 11.5498 12.0001 12.8556 12.0001 14.451V18.451C12.0001 19.5838 12.5135 19.8387 13.0001 20.451C13.1723 20.6688 13.2172 21.2878 13.0001 21.451C12.4573 21.8627 11.5317 23.0224 11.0001 23.451Z" fill="#79797A" fill-opacity="0.45"/>
</g>
<defs>
<clipPath id="clip0_118_38">
<rect width="86" height="34" fill="white" transform="translate(0 0.45105)"/>
</clipPath>
</defs>
</svg>
