<svg width="86" height="35" viewBox="0 0 86 35" fill="none" xmlns="http://www.w3.org/2000/svg">
<path d="M6 22.4511H0V25.4511H6V22.4511Z" fill="#79797A" fill-opacity="0.45"/>
<path d="M15 22.4511H9V25.4511H15V22.4511Z" fill="#79797A" fill-opacity="0.45"/>
<path d="M15 17.4511H0V20.4511H15V17.4511Z" fill="#79797A" fill-opacity="0.45"/>
<path d="M9 12.4511H0V15.4511H9V12.4511Z" fill="#79797A" fill-opacity="0.45"/>
<path d="M15 12.4511H12V15.4511H15V12.4511Z" fill="#79797A" fill-opacity="0.45"/>
<path d="M57 12.4511C52.3377 12.4511 50 15.0367 50 18.4511C50 21.8656 52.2783 25.4511 57 25.4511C61.7217 25.4511 64 21.8656 64 18.4511C64.0002 15.0367 61.6622 12.4511 57 12.4511ZM60 18.4511C59.9967 20.6467 59.6427 22.4511 57 22.4511C54.3573 22.4511 53.0027 20.6468 53 18.4511C53.0027 16.2556 54.3573 14.4511 57 14.4511C59.6425 14.4511 59.9967 16.2556 60 18.4511C60 18.4529 60 18.4492 60 18.4511Z" fill="#79797A" fill-opacity="0.45"/>
<path d="M36 25.4511V7.45106C36 7.45106 38.7918 7.47458 39 7.45106C39 7.17232 39.2359 7.42431 39 7.45106V14.4511C39.5573 14.0063 40.3312 13.7243 41 13.4511C41.6694 13.1782 42.0982 12.4511 43 12.4511C43.7807 12.4511 45.396 13.2286 46 13.4511C46.6044 13.6731 46.5958 14.0496 47 14.4511C47.4042 14.8531 47.7909 14.8933 48 15.4511C48.209 16.0088 48 16.7801 48 17.4511V25.4511H45V17.4511C45 16.7179 44.4042 15.8531 44 15.4511C43.5956 15.0495 42.8087 15.4511 42 15.4511C41.4053 15.4511 41.5201 15.2246 41 15.4511C40.4793 15.6774 39.4646 16.0607 39 16.4511V25.4511H36Z" fill="#79797A" fill-opacity="0.45"/>
<path d="M82 25.4511C79.6307 25.4511 78 23.6106 78 21.4511V15.4511H75C75 15.4511 75.9551 13.5808 76 13.4511C75.7643 13.4786 76.0451 13.3215 76 13.4511C76.2357 13.4235 78 13.4511 78 13.4511L79 9.45106C79 9.45106 80.6943 9.48934 81 9.45106C81 9.18708 81.2886 9.41478 81 9.45106V13.4511H85V15.4511H81V21.4511C81 22.3131 82.4008 22.4511 83 22.4511C83.3663 22.4511 83.6257 22.5968 84 22.4511C83.9073 22.18 84.2313 22.3613 84 22.4511C84.0819 22.6912 85 24.4511 85 24.4511C84.6244 24.6546 83.686 25.4511 82 25.4511Z" fill="#79797A" fill-opacity="0.45"/>
<path d="M73 15.4511C72.329 15.2681 71.1997 14.4511 70 14.4511C68.7775 14.4511 68 15.5978 68 16.4511C68 17.5168 70.581 18.0166 72 18.4511C72.9487 18.7415 75 19.1541 75 21.4511C75 24.2412 71.9443 25.4511 69 25.4511C66.0553 25.4511 65 24.4511 65 24.4511C65 24.4511 64.9075 22.7184 65 22.4511C65.0837 22.2104 65.7877 22.3826 66 22.4511C66.7578 22.6963 67.4532 22.4511 69 22.4511C70.566 22.4511 72 22.3068 72 21.4511C72 20.3121 69.3986 19.8214 68 19.4511C67.0365 19.1962 65 18.9772 65 16.4511C65 13.9625 67.2181 12.4511 70 12.4511C72.3548 12.4511 74.1372 13.0821 75 13.4511C75 13.4511 74.0714 15.2415 74 15.4511C73.9158 15.7001 73.3051 15.5341 73 15.4511Z" fill="#79797A" fill-opacity="0.45"/>
<path d="M34 13.4511C34 13.1819 34.2613 12.426 34 12.4511C32.8446 12.5622 31.5333 13.0261 31 13.4511C29.9528 12.7623 28.6314 12.4511 27 12.4511C23.7291 12.4511 21 14.5613 21 17.4511C21 19.11 22.6642 19.7781 24 20.4511C23.0079 20.8453 22 21.6287 22 22.4511C22 23.8268 23 24.4511 23 24.4511C23 24.4511 21 25.6058 21 27.4511C21 29.8132 23.8359 30.4511 27 30.4511C31.5609 30.4511 34 28.3548 34 25.4511C34 23.6639 32.55 23.5684 29 23.4511C26.8934 23.3813 25.3381 22.545 25 22.4511C24.5533 22.3265 25 22.7825 25 22.4511C25 22.0851 25.4356 21.6903 26 21.4511C26.4923 21.5242 26.4605 21.4511 27 21.4511C30.2736 21.4511 33 20.3447 33 17.4511C33 16.7494 33.2743 15.9715 33 15.4511C33.4809 15.2357 33.2935 14.4511 34 14.4511C34 14.4511 34 13.6966 34 13.4511ZM25 25.4511C25 25.4511 27.2836 25.3843 29 25.4511C30.9283 25.5259 31 25.6128 31 26.4511C31 27.4752 29.3418 28.4511 27 28.4511C24.7771 28.4511 24 27.532 24 26.4511C24 25.8309 24.0024 25.8102 25 25.4511ZM27 19.4511C25.4505 19.4511 25 18.9582 25 17.4511C25 15.9437 25.4516 14.4511 27 14.4511C28.5486 14.4511 30 15.9419 30 17.4511C30 18.9602 28.5501 19.4511 27 19.4511Z" fill="#79797A" fill-opacity="0.45"/>
</svg>
