<svg width="86" height="35" viewBox="0 0 86 35" fill="none" xmlns="http://www.w3.org/2000/svg">
<path d="M26.9549 23.4197L27.9984 20.9891C29.1409 21.8323 30.6311 22.2786 32.1216 22.2786C33.2146 22.2786 33.91 21.8572 33.91 21.2124C33.8851 19.4266 27.3276 20.8155 27.2777 16.3256C27.2528 14.0438 29.2898 12.2828 32.1715 12.2828C33.8851 12.2828 35.5993 12.7046 36.8163 13.672L35.8412 16.1545C34.7215 15.437 33.3386 14.9367 32.0222 14.9367C31.1281 14.9367 30.5317 15.3581 30.5317 15.9042C30.5566 17.6652 37.1643 16.6977 37.2388 20.9891C37.2388 23.3207 35.2513 24.9577 32.4195 24.9577C30.3333 24.9577 28.4206 24.4618 26.9546 23.4197H26.9549ZM68.5036 20.1089C68.2402 20.5753 67.8571 20.9635 67.3935 21.2337C66.93 21.5038 66.4026 21.6462 65.8656 21.6463C64.1919 21.6463 62.8353 20.2914 62.8353 18.6203C62.8353 16.9491 64.1919 15.5942 65.8656 15.5942C66.4026 15.5943 66.93 15.7367 67.3935 16.0068C67.8571 16.277 68.2402 16.6652 68.5036 17.1316L71.4046 15.5268C70.318 13.5914 68.2454 12.2828 65.8656 12.2828C62.3605 12.2828 59.519 15.1199 59.519 18.6203C59.519 22.1203 62.3605 24.9577 65.8656 24.9577C68.2454 24.9577 70.318 23.6491 71.4046 21.7137L68.5036 20.1089ZM39.1212 24.7096H42.7479V7.0072H39.1216L39.1212 24.7096ZM73.2361 7.0072V24.7096H76.8627V19.406L81.1601 24.7096H85.7956L80.3308 18.409L85.3981 12.5299H80.9613L76.8627 17.4177V7.0072H73.2361ZM53.9209 12.5306V13.9696C53.3249 12.9772 51.8593 12.2828 50.3192 12.2828C47.1397 12.2828 44.631 15.0858 44.631 18.6078C44.631 22.1298 47.1397 24.9577 50.3192 24.9577C51.8593 24.9577 53.3249 24.2633 53.9209 23.2709V24.7096H57.5475V12.5306H53.9209ZM53.9209 20.1334C53.3994 21.0015 52.3064 21.6459 51.0894 21.6459C49.4154 21.6459 48.0588 20.2914 48.0588 18.6203C48.0588 16.9491 49.4154 15.5942 51.0894 15.5942C52.3064 15.5942 53.3994 16.2638 53.9209 17.1564V20.1334Z" fill="#79797A" fill-opacity="0.45"/>
<path d="M7.80282 6.61612C6.62756 6.61612 5.67495 7.56763 5.67495 8.74104C5.67466 9.01981 5.72948 9.29591 5.83627 9.55356C5.94305 9.81122 6.09971 10.0454 6.2973 10.2427C6.49489 10.44 6.72955 10.5966 6.98786 10.7036C7.24618 10.8105 7.52311 10.8657 7.80282 10.866H9.93106V8.74104C9.93153 8.17801 9.70759 7.63785 9.30847 7.23936C8.90936 6.84087 8.36777 6.61668 7.80282 6.61612ZM7.80282 12.2826H2.12812C0.952856 12.2826 0.000244141 13.2341 0.000244141 14.4079C0.000244141 15.5813 0.952856 16.5328 2.12812 16.5328H7.80318C8.97809 16.5328 9.93106 15.5813 9.93106 14.4079C9.93106 13.2341 8.97809 12.2826 7.80282 12.2826Z" fill="#79797A" fill-opacity="0.45"/>
<path d="M21.2804 14.4079C21.2804 13.2341 20.3275 12.2826 19.1522 12.2826C17.9769 12.2826 17.0243 13.2341 17.0243 14.4079V16.5328H19.1522C19.7171 16.5322 20.2587 16.308 20.6578 15.9095C21.057 15.5111 21.2809 14.9709 21.2804 14.4079ZM15.6057 14.4079V8.74104C15.6062 8.17801 15.3823 7.63785 14.9831 7.23936C14.584 6.84087 14.0424 6.61668 13.4775 6.61612C12.3022 6.61612 11.3496 7.56763 11.3496 8.74104V14.4075C11.3496 15.5816 12.3022 16.5331 13.4775 16.5331C14.0424 16.5326 14.584 16.3084 14.9831 15.9099C15.3823 15.5114 15.6062 14.9712 15.6057 14.4082" fill="#79797A" fill-opacity="0.45"/>
<path d="M13.4775 27.8661C14.0424 27.8655 14.584 27.6414 14.9831 27.2429C15.3823 26.8444 15.6062 26.3042 15.6057 25.7412C15.6062 25.1781 15.3823 24.638 14.9831 24.2395C14.584 23.841 14.0424 23.6168 13.4775 23.6162H11.3496V25.7412C11.3496 26.9146 12.3022 27.8661 13.4775 27.8661ZM13.4775 22.1996H19.1525C20.3275 22.1996 21.2804 21.2481 21.2804 20.0744C21.2809 19.5113 21.057 18.9712 20.6578 18.5727C20.2587 18.1742 19.7171 17.95 19.1522 17.9494H13.4775C12.3022 17.9494 11.3496 18.9009 11.3496 20.0744C11.3493 20.3531 11.4041 20.6292 11.5109 20.8869C11.6177 21.1445 11.7744 21.3787 11.972 21.576C12.1696 21.7733 12.4042 21.9299 12.6625 22.0369C12.9208 22.1438 13.1978 22.199 13.4775 22.1993" fill="#79797A" fill-opacity="0.45"/>
<path d="M1.07368e-06 20.0744C-0.000279767 20.3531 0.0545367 20.6292 0.161321 20.8869C0.268105 21.1445 0.424765 21.3787 0.622357 21.576C0.819949 21.7733 1.0546 21.9299 1.31292 22.0369C1.57124 22.1438 1.84816 22.199 2.12788 22.1993C2.69283 22.1987 3.23442 21.9745 3.63353 21.576C4.03264 21.1776 4.25659 20.6374 4.25612 20.0744V17.9494H2.12788C0.952613 17.9494 1.07368e-06 18.9009 1.07368e-06 20.0744ZM5.6747 20.0744V25.7408C5.6747 26.9146 6.62731 27.8661 7.80258 27.8661C8.36753 27.8655 8.90912 27.6414 9.30823 27.2429C9.70734 26.8444 9.93129 26.3042 9.93082 25.7412V20.0744C9.9311 19.7956 9.87627 19.5194 9.76946 19.2618C9.66266 19.0041 9.50597 18.7699 9.30834 18.5726C9.11071 18.3752 8.87601 18.2187 8.61765 18.1117C8.35929 18.0048 8.08233 17.9497 7.80258 17.9494C6.62731 17.9494 5.6747 18.9009 5.6747 20.0744Z" fill="#79797A" fill-opacity="0.45"/>
</svg>
